<svg xmlns="http://www.w3.org/2000/svg" width="226.941" height="158.809" viewBox="0 0 226.941 158.809">
  <defs>
    <style>
      .cls-1 {
        fill: #fff;
      }
    </style>
  </defs>
  <g id="_7229171_robot_robotic_cyber_automation_ai_icon" data-name="7229171_robot_robotic_cyber_automation_ai_icon" transform="translate(-45.58 -108.74)">
    <path id="Path_73" data-name="Path 73" class="cls-1" d="M244.324,184.018a13.2,13.2,0,1,0-13.2-13.2A13.2,13.2,0,0,0,244.324,184.018Zm0-20.66a7.457,7.457,0,1,1-7.451,7.455,7.457,7.457,0,0,1,7.451-7.455Z" transform="translate(-85.505 -22.522)"/>
    <path id="Path_74" data-name="Path 74" class="cls-1" d="M255.99,163.874V163.1a17.663,17.663,0,0,0-17.647-17.647h-4.7l-17.582-35.094a2.863,2.863,0,0,0-2.566-1.617H159.228c-.07,0-.129.038-.2.043s-.129-.043-.2-.043H104.574a2.863,2.863,0,0,0-2.566,1.617L84.426,145.451H79.735A17.668,17.668,0,0,0,62.084,163.1v.776a19.35,19.35,0,0,0-16.5,19.091V202.8a2.874,2.874,0,0,0,2.874,2.874h7.009v9.209a2.874,2.874,0,1,0,5.747,0v-9.22h7.548v9.209a2.874,2.874,0,0,0,5.747,0v-9.209h7.009a2.874,2.874,0,0,0,2.874-2.874v-19.83a19.356,19.356,0,0,0-16.579-19.081V163.1a11.915,11.915,0,0,1,11.9-11.9h5.58l70.629,50.934v16.951H123.714a16.493,16.493,0,0,0-16.444,16.5v16.051c0,.092.049.173.054.27,0,.183-.054.35-.054.539a15.064,15.064,0,0,0,27.33,8.788,15,15,0,0,0,24.456,0,15,15,0,0,0,24.456,0,15.064,15.064,0,0,0,27.276-8.815c0-.189-.049-.356-.054-.539,0-.1.054-.178.054-.27V235.581a16.493,16.493,0,0,0-16.471-16.471H162.107V202.122l70.629-50.934h5.586a11.915,11.915,0,0,1,11.9,11.9v.787a19.356,19.356,0,0,0-16.509,19.091V202.8a2.874,2.874,0,0,0,2.874,2.874H243.6v9.209a2.874,2.874,0,1,0,5.747,0v-9.22h7.548v9.209a2.874,2.874,0,0,0,5.747,0v-9.209h7.009a2.874,2.874,0,0,0,2.874-2.874v-19.83A19.35,19.35,0,0,0,255.99,163.874ZM78.565,182.955v16.956H51.306V182.955a13.63,13.63,0,0,1,27.26,0Zm43.8,78.808a9.349,9.349,0,1,1,9.354-9.351A9.349,9.349,0,0,1,122.366,261.763Zm24.456,0a9.365,9.365,0,1,0-.022,0Zm24.456,0a9.327,9.327,0,1,0-.022,0Zm24.451,0a9.387,9.387,0,1,0-.038,0Zm-1.369-36.932a10.735,10.735,0,0,1,10.7,10.751v5.1a14.9,14.9,0,0,0-21.566,2.965,15.01,15.01,0,0,0-24.456,0,15,15,0,0,0-24.456,0,14.908,14.908,0,0,0-21.566-2.971v-5.1a10.735,10.735,0,0,1,10.718-10.724h35.1c.076,0,.135-.038.2-.043s.135.043.2.043Zm-35.331-27.567L95.118,151.182H132a26.958,26.958,0,0,0,53.646,0h37.288Zm-21.566-48.971a21.367,21.367,0,1,1,21.363,21.361A21.367,21.367,0,0,1,137.463,148.292Zm48.19-2.863a26.958,26.958,0,0,0-53.646,0H90.842l15.5-30.921h52.487c.075,0,.135-.038.2-.043s.135.043.2.043h52.492l15.5,30.921c-8.422.016-26.262.011-41.574,0Zm81.1,54.455h-27.27V182.955a13.634,13.634,0,1,1,27.268,0Z"/>
  </g>
</svg>
