<svg xmlns="http://www.w3.org/2000/svg" width="151.8" height="151.8" viewBox="0 0 151.8 151.8">
  <defs>
    <style>
      .cls-1, .cls-2 {
        fill: #fff;
      }

      .cls-2 {
        opacity: 0.48;
      }
    </style>
  </defs>
  <g id="Layer_28" data-name="Layer 28" transform="translate(-6 -6)">
    <path id="Path_71" data-name="Path 71" class="cls-1" d="M154.881,6H8.919A2.919,2.919,0,0,0,6,8.919V154.881A2.919,2.919,0,0,0,8.919,157.8H95.3a2.919,2.919,0,0,0,2.919-2.919V105.02a2.919,2.919,0,0,0-5.838,0v46.941H11.838V107.94H66.983A2.919,2.919,0,0,0,69.9,105.02V77.638a2.919,2.919,0,0,0-5.838,0V102.1H11.838V52.708H66.983A2.919,2.919,0,0,0,69.9,49.789V11.838h31.586v20.2a2.919,2.919,0,1,0,5.838,0v-20.2h44.635V55.277H104.407a2.919,2.919,0,1,0,0,5.838h47.554v40.869H120.814a2.919,2.919,0,0,0,0,5.838h31.148v44.139H125.689a2.919,2.919,0,0,0,0,5.838h29.192a2.919,2.919,0,0,0,2.919-2.919V8.919A2.919,2.919,0,0,0,154.881,6ZM64.064,46.869H11.838V11.838H64.064Z" transform="translate(0 0)"/>
    <path id="Path_72" data-name="Path 72" class="cls-2" d="M154.881,6H8.919A2.919,2.919,0,0,0,6,8.919V154.881A2.919,2.919,0,0,0,8.919,157.8H95.3a2.919,2.919,0,0,0,2.919-2.919V105.02a2.919,2.919,0,0,0-5.838,0v46.941H11.838V107.94H66.983A2.919,2.919,0,0,0,69.9,105.02V77.638a2.919,2.919,0,0,0-5.838,0V102.1H11.838V52.708H66.983A2.919,2.919,0,0,0,69.9,49.789V11.838h31.586v20.2a2.919,2.919,0,1,0,5.838,0v-20.2h44.635V55.277H104.407a2.919,2.919,0,1,0,0,5.838h47.554v40.869H120.814a2.919,2.919,0,0,0,0,5.838h31.148v44.139H125.689a2.919,2.919,0,0,0,0,5.838h29.192a2.919,2.919,0,0,0,2.919-2.919V8.919A2.919,2.919,0,0,0,154.881,6ZM64.064,46.869H11.838V11.838H64.064Z" transform="translate(0 0)"/>
  </g>
</svg>
